<svg width="64" height="64" xmlns="http://www.w3.org/2000/svg" data-name="Layer 1">

 <g>
  <title>Layer 1</title>
  <path id="svg_1" fill="#0000ff" d="m39.15,18.2l9.31,-14l9.32,14l-5,0l0,21.26l-8.68,0l0,-21.26l-4.95,0z"/>
  <path id="svg_2" fill="#6f6f59" d="m52.83,40.58l-8.73,0a1.12,1.12 0 0 1 -1.1,-1.12l0,-20.13l-3.85,0a1.13,1.13 0 0 1 -0.94,-1.75l9.31,-14a1.14,1.14 0 0 1 0.94,-0.5l0,0a1.14,1.14 0 0 1 0.94,0.5l9.32,14.05a1.13,1.13 0 0 1 -0.94,1.75l-3.78,0l0,20.08a1.12,1.12 0 0 1 -1.17,1.12zm-7.61,-2.25l6.49,0l0,-20.13a1.13,1.13 0 0 1 1.12,-1.13l2.85,0l-7.22,-10.88l-7.21,10.88l2.85,0a1.13,1.13 0 0 1 1.12,1.13l0,20.13z"/>
  <path id="svg_3" fill="#00ff00" d="m17.89,58.79l-14,-9.31l14,-9.32l0,4.94l21.26,0l0,8.74l-21.26,0l0,4.95z"/>
  <path id="svg_4" fill="#6f6f59" d="m17.89,59.91a1.17,1.17 0 0 1 -0.62,-0.18l-14,-9.31a1.15,1.15 0 0 1 -0.5,-0.94a1.14,1.14 0 0 1 0.5,-0.94l14.05,-9.32a1.12,1.12 0 0 1 1.75,0.94l0,3.84l20.08,0a1.13,1.13 0 0 1 1.13,1.12l0,8.74a1.14,1.14 0 0 1 -1.13,1.14l-20.15,0l0,3.82a1.11,1.11 0 0 1 -1.13,1.12l0.02,-0.03zm-12,-10.43l10.88,7.21l0,-2.85a1.13,1.13 0 0 1 1.12,-1.13l20.11,0l0,-6.48l-20.11,0a1.12,1.12 0 0 1 -1.12,-1.13l0,-2.84l-10.88,7.22z"/>
  <path transform="rotate(-180 48.23 49.23)" id="svg_5" d="m39,40l18.46,0l0,18.46l-18.46,0l0,-18.46z" opacity="undefined" fill="#ff0000"/>
  <path id="svg_6" fill="#6f6f59" d="m57.79,59.05l-18.47,0a1.14,1.14 0 0 1 -1.13,-1.13l0,-18.46a1.13,1.13 0 0 1 1.13,-1.13l18.47,0a1.12,1.12 0 0 1 1.12,1.13l0,18.46a1.13,1.13 0 0 1 -1.12,1.13zm-17.34,-2.26l16.21,0l0,-16.21l-16.21,0l0,16.21z"/>
  <path id="svg_7" fill="#787878" d="m14.27,20.61l4.57,0l0,3.2l-4.57,0l0,5.26l-3.5,0l0,-5.26l-4.6,0l0,-3.2l4.6,0l0,-5l3.5,0l0,5z"/>
  <path id="svg_8" fill="#787878" d="m27.88,19l3.47,-6.55l4.31,0l-5.48,9.15l5.82,9.32l-4.5,0l-3.57,-6.66l-3.57,6.66l-4.36,0l5.63,-9.32l-5.49,-9.16l4.3,0l3.44,6.56z"/>
 </g>
</svg>