<svg width="64" height="64" xmlns="http://www.w3.org/2000/svg" data-name="Layer 1">

 <g>
  <title>Layer 1</title>
  <path id="svg_1" fill="#0000ff" d="m25.43,18.2l-9.31,-14l-9.32,14l5,0l0,21.26l8.73,0l0,-21.26l4.9,0z"/>
  <path id="svg_2" fill="#6f6f59" d="m20.48,40.58l-8.73,0a1.12,1.12 0 0 1 -1.13,-1.12l0,-20.13l-3.82,0a1.12,1.12 0 0 1 -0.94,-1.75l9.32,-14a1.14,1.14 0 0 1 0.94,-0.5l0,0a1.14,1.14 0 0 1 0.94,0.5l9.31,14.05a1.13,1.13 0 0 1 -0.94,1.75l-3.82,0l0,20.08a1.13,1.13 0 0 1 -1.13,1.12zm-7.61,-2.25l6.48,0l0,-20.13a1.14,1.14 0 0 1 1.13,-1.13l2.85,0l-7.21,-10.88l-7.22,10.88l2.85,0a1.13,1.13 0 0 1 1.12,1.13l0,20.13z"/>
  <path id="svg_3" fill="#ff0000" d="m46.69,58.79l14,-9.31l-14,-9.32l0,4.94l-21.26,0l0,8.74l21.26,0l0,4.95z"/>
  <path id="svg_4" fill="#6f6f59" d="m46.69,59.91a1.11,1.11 0 0 1 -1.13,-1.12l0,-3.79l-20.13,0a1.14,1.14 0 0 1 -1.13,-1.13l0,-8.77a1.13,1.13 0 0 1 1.13,-1.1l20.13,0l0,-3.84a1.12,1.12 0 0 1 1.75,-0.94l14,9.32a1.12,1.12 0 0 1 0.51,0.94a1.13,1.13 0 0 1 -0.51,0.94l-14,9.31a1.17,1.17 0 0 1 -0.62,0.18zm-20.13,-7.2l20.13,0a1.13,1.13 0 0 1 1.12,1.13l0,2.85l10.88,-7.21l-10.88,-7.22l0,2.84a1.12,1.12 0 0 1 -1.12,1.13l-20.13,0l0,6.48z"/>
  <rect id="svg_5" fill="#00ff00" height="18.46" width="18.46" y="39.46" x="6.79"/>
  <path id="svg_6" fill="#6f6f59" d="m25.26,59.05l-18.47,0a1.13,1.13 0 0 1 -1.12,-1.13l0,-18.46a1.12,1.12 0 0 1 1.12,-1.13l18.47,0a1.12,1.12 0 0 1 1.12,1.13l0,18.46a1.13,1.13 0 0 1 -1.12,1.13zm-17.34,-2.26l16.21,0l0,-16.21l-16.21,0l0,16.21z"/>
  <path id="svg_7" fill="#787878" d="m36.43,20.61l4.57,0l0,3.2l-4.57,0l0,5.26l-3.5,0l0,-5.26l-4.6,0l0,-3.2l4.6,0l0,-5l3.5,0l0,5z"/>
  <path id="svg_8" fill="#787878" d="m50,21l0.07,0l4,-8.52l4.13,0l-6.33,12l0,6.5l-3.71,0l0,-6.75l-6.23,-11.79l4.07,0l4,8.56z"/>
 </g>
</svg>