<svg width="64" height="64" xmlns="http://www.w3.org/2000/svg" data-name="Layer 1">

 <g>
  <title>Layer 1</title>
  <path id="svg_1" fill="#0000ff" d="m24.44,18.2l-9.31,-14l-9.32,14l5,0l0,21.26l8.73,0l0,-21.26l4.9,0z"/>
  <path id="svg_2" fill="#6f6f59" d="m19.49,40.58l-8.73,0a1.13,1.13 0 0 1 -1.13,-1.12l0,-20.13l-3.82,0a1.13,1.13 0 0 1 -0.94,-1.75l9.32,-14a1.14,1.14 0 0 1 0.94,-0.5l0,0a1.14,1.14 0 0 1 0.94,0.5l9.31,14.05a1.13,1.13 0 0 1 -0.94,1.75l-3.82,0l0,20.08a1.12,1.12 0 0 1 -1.13,1.12zm-7.61,-2.25l6.49,0l0,-20.13a1.13,1.13 0 0 1 1.12,-1.13l2.85,0l-7.21,-10.88l-7.22,10.88l2.85,0a1.13,1.13 0 0 1 1.12,1.13l0,20.13z"/>
  <path id="svg_3" fill="#00ff00" d="m45.7,58.79l14,-9.31l-14,-9.32l0,4.94l-21.26,0l0,8.74l21.26,0l0,4.95z"/>
  <path id="svg_4" fill="#6f6f59" d="m45.7,59.91a1.11,1.11 0 0 1 -1.13,-1.12l0,-3.79l-20.13,0a1.14,1.14 0 0 1 -1.13,-1.13l0,-8.77a1.13,1.13 0 0 1 1.13,-1.1l20.13,0l0,-3.84a1.12,1.12 0 0 1 1.75,-0.94l14,9.32a1.14,1.14 0 0 1 0.5,0.94a1.15,1.15 0 0 1 -0.5,0.94l-14,9.31a1.17,1.17 0 0 1 -0.62,0.18zm-20.13,-7.2l20.13,0a1.13,1.13 0 0 1 1.12,1.13l0,2.85l10.88,-7.21l-10.88,-7.22l0,2.84a1.12,1.12 0 0 1 -1.12,1.13l-20.13,0l0,6.48z"/>
  <rect id="svg_5" fill="#ff0000" height="18.46" width="18.46" y="39.46" x="5.81"/>
  <path id="svg_6" fill="#6f6f59" d="m24.27,59.05l-18.46,0a1.13,1.13 0 0 1 -1.13,-1.13l0,-18.46a1.12,1.12 0 0 1 1.13,-1.13l18.46,0a1.12,1.12 0 0 1 1.12,1.13l0,18.46a1.13,1.13 0 0 1 -1.12,1.13zm-17.34,-2.26l16.21,0l0,-16.21l-16.21,0l0,16.21z"/>
  <path id="svg_7" fill="#787878" d="m36,24.45l-7.52,0l0,-2.86l7.52,0l0,2.86z"/>
  <path id="svg_8" fill="#787878" d="m46.19,19l3.47,-6.55l4.34,0l-5.51,9.15l5.8,9.32l-4.48,0l-3.57,-6.66l-3.56,6.66l-4.33,0l5.65,-9.32l-5.48,-9.16l4.29,0l3.38,6.56z"/>
 </g>
</svg>