<?xml version="1.0" standalone="no"?><!DOCTYPE svg PUBLIC "-//W3C//DTD SVG 1.1//EN" "http://www.w3.org/Graphics/SVG/1.1/DTD/svg11.dtd"><svg t="1727937468553" class="icon" viewBox="0 0 1024 1024" version="1.1" xmlns="http://www.w3.org/2000/svg" p-id="4290" data-spm-anchor-id="a313x.search_index.0.i3.2a533a81hbRDD4" xmlns:xlink="http://www.w3.org/1999/xlink" width="200" height="200"><path d="M977.066667 352L832 435.2c-27.733333 17.066667-42.666667 29.866667-42.666667 55.466667v149.333333c2.133333 29.866667 17.066667 57.6 42.666667 74.666667l142.933333 83.2c27.733333 17.066667 49.066667 6.4 49.066667-23.466667V375.466667c0-25.6-21.333333-38.4-46.933333-23.466667zM644.266667 277.333333H640V170.666667c0-23.466667-19.2-42.666667-42.666667-42.666667H128c-23.466667 0-42.666667 19.2-42.666667 42.666667s19.2 42.666667 42.666667 42.666666h426.666667v64H106.666667c-96 0-106.666667 10.666667-106.666667 106.666667v405.333333c0 93.866667 12.8 106.666667 106.666667 106.666667h533.333333c93.866667 0 106.666667-12.8 106.666667-106.666667V384c0-96-8.533333-106.666667-102.4-106.666667z m-6.4 168.533334c-4.266667 21.333333-21.333333 38.4-40.533334 42.666666-27.733333 6.4-57.6-12.8-61.866666-40.533333-2.133333-6.4-2.133333-14.933333 0-21.333333 4.266667-21.333333 21.333333-36.266667 40.533333-40.533334 27.733333-6.4 55.466667 8.533333 61.866667 36.266667 2.133333 8.533333 2.133333 17.066667 0 23.466667z" fill="#A7D28C" p-id="4291" data-spm-anchor-id="a313x.search_index.0.i1.2a533a81hbRDD4" class="selected"></path></svg>