<?xml version="1.0" standalone="no"?><!DOCTYPE svg PUBLIC "-//W3C//DTD SVG 1.1//EN" "http://www.w3.org/Graphics/SVG/1.1/DTD/svg11.dtd"><svg t="1711427991916" class="icon" viewBox="0 0 1024 1024" version="1.1" xmlns="http://www.w3.org/2000/svg" p-id="34917" xmlns:xlink="http://www.w3.org/1999/xlink" width="200" height="200"><path d="M947.26 577.96a54.296 54.296 0 0 0-54.296 54.288v230.376c0 0.504-0.56 1.208-1.608 1.208H110.5c-1.056 0-1.616-0.704-1.616-1.208V161.376c0-0.512 0.56-1.208 1.616-1.208h191.4a54.288 54.288 0 1 0 0-108.568H110.5C49.74 51.6 0.316 100.84 0.316 161.384v701.248c0 60.528 49.424 109.792 110.184 109.792h780.856c60.752 0 110.184-49.256 110.184-109.792V632.248a54.288 54.288 0 0 0-54.28-54.288z" fill="#f4ea2a" p-id="34918"></path><path d="M1023.356 100.008a54.24 54.24 0 0 0-59.84-48.104c-5.344 0.592-132.504 15.096-267.216 89.432-141.632 78.16-238.824 193.08-286.072 336.552L350.692 305.76a54.28 54.28 0 1 0-102.592 35.496l106.752 308.616a54.312 54.312 0 0 0 69.088 33.552l0.632-0.224 309.424-111.584a54.296 54.296 0 0 0-36.832-102.144l-191.896 69.2c34.664-129.656 115.224-230.552 240.392-300.552 115.944-64.848 228.584-78.16 229.72-78.288a54.272 54.272 0 0 0 47.976-59.824z" fill="#f4ea2a" p-id="34919"></path></svg>