<?xml version="1.0" standalone="no"?><!DOCTYPE svg PUBLIC "-//W3C//DTD SVG 1.1//EN" "http://www.w3.org/Graphics/SVG/1.1/DTD/svg11.dtd"><svg t="1727966338923" class="icon" viewBox="0 0 1024 1024" version="1.1" xmlns="http://www.w3.org/2000/svg" p-id="4517" xmlns:xlink="http://www.w3.org/1999/xlink" width="200" height="200"><path d="M420.571429 658.285714L115.809524 886.869333 591.238095 1024l316.952381-231.619048z" fill="#C1C7CB" p-id="4518"></path><path d="M115.809524 293.400381v481.609143L591.238095 914.285714V426.666667zM908.190476 197.595429L591.238095 426.666667v487.619047l316.952381-223.292952zM420.571429 60.952381L115.809524 289.536 591.238095 426.666667l316.952381-231.619048z" fill="#F0F9FF" p-id="4519"></path><path d="M418.03581 47.616L920.380952 185.758476v511.561143L593.456762 927.634286 103.619048 784.14019V283.428571L418.03581 47.616zM128 308.662857v446.19581l46.214095-36.815238 15.201524 19.065904L146.529524 771.291429 579.047619 897.999238V609.377524l-27.062857-7.631238 6.619428-23.466667 20.443429 5.753905V435.894857l-148.406857-41.862095-0.121905 20.516571-24.380952-0.158476 0.170666-27.221333L128 308.662857z m768-87.235047L603.428571 432.88381v158.037333l13.836191 3.900952-6.619429 23.466667-7.216762-2.03581V890.758095L881.700571 694.735238l-48.128-13.568 6.619429-23.466667L896 673.426286V221.45219zM128 757.881905v7.984762l8.313905 2.438095L128 757.881905z m122.477714-100.608l15.201524 19.065905-47.664762 37.985523-15.201524-19.065904 47.664762-37.985524z m495.847619-26.051048l58.660572 16.542476-6.619429 23.466667-58.660571-16.542476 6.619428-23.466667z m-419.584-34.742857l15.201524 19.078095-47.664762 37.985524-15.201524-19.065905 47.664762-37.985524z m325.729524 8.265143l58.660572 16.554667-6.619429 23.466666-58.660571-16.554666 6.607238-23.466667z m-252.513524-71.216762l29.586286 8.350476-6.619429 23.466667-13.275428-3.754667-39.107048 31.171048-15.201524-19.065905 42.947048-34.230857 1.670095-5.936762z m64.780191 18.273524l58.672762 16.542476-6.619429 23.466667-58.672762-16.542477 6.619429-23.466666z m-58.843429-100.839619l24.380953 0.158476-0.402286 60.952381-24.380952-0.158476 0.402285-60.952381zM432.700952 76.921905l-0.256 32.694857-24.380952-0.121905 0.182857-24.088381-268.336762 201.264762 266.556953 75.203048 0.073142-8.448 24.380953 0.158476-0.109714 15.152762 158.061714 44.580571 294.119619-212.565333L432.700952 76.921905z m-25.526857 178.980571l24.380953 0.158476-0.402286 60.952381-24.380952-0.158476 0.402285-60.952381z m0.646095-97.523809l24.380953 0.158476-0.402286 60.952381-24.380952-0.158476 0.402285-60.952381z" fill="#7B8994" p-id="4520"></path><path d="M420.571429 60.952381m-60.952381 0a60.952381 60.952381 0 1 0 121.904762 0 60.952381 60.952381 0 1 0-121.904762 0Z" fill="#7B8994" p-id="4521"></path><path d="M908.190476 195.047619m-60.952381 0a60.952381 60.952381 0 1 0 121.904762 0 60.952381 60.952381 0 1 0-121.904762 0Z" fill="#7B8994" p-id="4522"></path><path d="M115.809524 292.571429m-60.952381 0a60.952381 60.952381 0 1 0 121.904762 0 60.952381 60.952381 0 1 0-121.904762 0Z" fill="#7B8994" p-id="4523"></path><path d="M115.809524 768m-60.952381 0a60.952381 60.952381 0 1 0 121.904762 0 60.952381 60.952381 0 1 0-121.904762 0Z" fill="#7B8994" p-id="4524"></path><path d="M591.238095 889.904762m-60.952381 0a60.952381 60.952381 0 1 0 121.904762 0 60.952381 60.952381 0 1 0-121.904762 0Z" fill="#7B8994" p-id="4525"></path><path d="M591.238095 426.666667m-60.952381 0a60.952381 60.952381 0 1 0 121.904762 0 60.952381 60.952381 0 1 0-121.904762 0Z" fill="#7B8994" p-id="4526"></path><path d="M908.190476 682.666667m-60.952381 0a60.952381 60.952381 0 1 0 121.904762 0 60.952381 60.952381 0 1 0-121.904762 0Z" fill="#7B8994" p-id="4527"></path></svg>