<?xml version="1.0"?>
<svg width="64" height="64" xmlns="http://www.w3.org/2000/svg" xmlns:svg="http://www.w3.org/2000/svg" data-name="Layer 1">
 <g class="layer">
  <title>Layer 1</title>
  <path d="m18.21,33.88l-8.77,0a1.14,1.14 0 0 1 -1.13,-1.13l0,-20.75a1.14,1.14 0 0 1 1.13,-1.13l26.83,0l0,-5.08a1.13,1.13 0 0 1 1.73,-0.94l16,10.61a1.12,1.12 0 0 1 0,1.88l-16,10.66a1.13,1.13 0 0 1 -1.73,-1l0,-5.1l-16.94,0l0,10.85a1.13,1.13 0 0 1 -1.12,1.13zm-7.64,-2.26l6.51,0l0,-10.84a1.12,1.12 0 0 1 1.13,-1.12l19.19,0a1.12,1.12 0 0 1 1.12,1.12l0,4.13l12.83,-8.51l-12.83,-8.51l0,4.11a1.13,1.13 0 0 1 -1.12,1.13l-26.83,0l0,18.49z" fill="#6f6f59" id="svg_2"/>
  <path d="m25.43,56.93a1.1,1.1 0 0 1 -0.62,-0.19l-16,-10.61a1.11,1.11 0 0 1 0,-1.87l16,-10.61a1.12,1.12 0 0 1 1.75,0.94l0,5.1l16.94,0l0,-10.84a1.12,1.12 0 0 1 1.13,-1.13l8.76,0a1.13,1.13 0 0 1 1.13,1.13l0,20.73a1.13,1.13 0 0 1 -1.13,1.12l-26.83,0l0,5.1a1.14,1.14 0 0 1 -0.59,1a1.13,1.13 0 0 1 -0.54,0.13zm-13.95,-11.74l12.83,8.51l0,-4.12a1.13,1.13 0 0 1 1.12,-1.13l26.83,0l0,-18.45l-6.51,0l0,10.81a1.13,1.13 0 0 1 -1.12,1.13l-19.2,0a1.13,1.13 0 0 1 -1.12,-1.13l0,-4.12l-12.83,8.5z" fill="#6f6f59" id="svg_4"/>
 </g>
</svg>