<?xml version="1.0" standalone="no"?><!DOCTYPE svg PUBLIC "-//W3C//DTD SVG 1.1//EN" "http://www.w3.org/Graphics/SVG/1.1/DTD/svg11.dtd"><svg class="icon" width="200px" height="200.00px" viewBox="0 0 1024 1024" version="1.1" xmlns="http://www.w3.org/2000/svg"><path d="M375.381 562.517c-57.898-5.162-89.472-39.296-94.634-102.4 4.138-67.2 37.76-103.381 100.864-108.586 72.362-1.024 108.032 50.176 107.008 153.6 0 109.61-37.76 164.906-113.238 165.973-45.525-2.133-74.453-24.32-86.869-66.73l32.597-10.838c7.211 36.181 26.368 53.76 57.387 52.736 48.597-2.048 73.387-44.97 74.453-128.768-15.488 29.995-41.386 45.013-77.568 45.013z m3.115-181.504c-39.296 3.072-60.501 28.459-63.573 75.99 2.048 47.573 23.253 72.96 63.573 76.032 40.32 0 65.152-18.603 74.453-55.851 0-65.152-24.832-97.195-74.453-96.17z m145.835 131.84c0.981-104.448 35.114-158.208 102.4-161.322 67.157 2.09 101.29 55.85 102.357 161.322-1.067 103.424-34.688 156.16-100.821 158.251-69.334-1.067-103.936-53.76-103.936-158.25z m169.088 0c0-89.984-22.784-134.4-68.267-133.418-42.41 3.114-64.128 47.616-65.152 133.418 0 88.96 22.187 132.907 66.688 131.84 44.459 1.067 66.73-42.88 66.73-131.84z m75.989-82.218c3.115-35.158 22.23-54.272 57.387-57.387 36.181 3.115 55.893 22.23 58.965 57.387-3.115 36.224-22.784 55.893-58.965 58.965-35.158-3.115-54.272-22.741-57.387-58.965z m96.17 0c-3.071-24.832-16.042-38.23-38.783-40.32-22.742 3.114-35.67 16.554-38.784 40.32 3.114 24.832 16.042 38.826 38.826 41.898 22.699-2.048 35.67-16.042 38.742-41.898z m-354.175 592.64c-281.984 0-511.36-229.376-511.36-511.403C0 229.973 229.419 0.512 511.403 0.512c157.696 0 298.922 71.765 392.789 184.32V54.613l47.147 47.872-1.11 167.766-167.765-1.366-47.061-47.744h8.106l121.558 0.982a456.704 456.704 0 0 0-353.664-167.68c-252.246 0-457.43 205.226-457.43 457.429 0 252.288 205.184 457.515 457.43 457.515S968.875 764.16 968.875 511.872v-0.981h53.888v0.981c0 282.027-229.376 511.403-511.36 511.403z" /></svg>