<?xml version="1.0" standalone="no"?><!DOCTYPE svg PUBLIC "-//W3C//DTD SVG 1.1//EN" "http://www.w3.org/Graphics/SVG/1.1/DTD/svg11.dtd"><svg t="1726036781675" class="icon" viewBox="0 0 1024 1024" version="1.1" xmlns="http://www.w3.org/2000/svg" p-id="1856" id="mx_n_1726036781676" width="200" height="200" xmlns:xlink="http://www.w3.org/1999/xlink"><path d="M765.44 98.816c45.056 0 88.064 14.336 123.392 40.448 8.192 6.144 10.24 17.92 4.096 26.624-6.144 8.192-17.92 10.24-26.624 4.096-29.184-21.504-64-33.28-100.864-33.28-10.24 0-18.944-8.704-18.944-18.944s8.704-18.944 18.944-18.944z m-78.336 34.816c5.12 9.216 2.048 20.48-6.656 25.6-31.232 18.432-56.32 46.08-70.656 79.36-4.096 9.728-15.36 13.824-25.088 9.728-9.728-4.096-13.824-15.36-9.728-25.088 17.92-40.448 48.128-74.752 86.528-96.768 8.704-5.12 20.48-2.048 25.6 7.168z m276.992 111.616c5.632 18.432 8.704 37.888 9.216 57.856 0 27.136-4.096 51.2-12.288 74.24-3.584 9.728-14.336 14.848-24.064 11.264-9.728-3.584-14.848-14.336-11.264-24.064 6.656-18.432 10.24-38.4 10.24-60.928-0.512-16.384-3.072-32.256-7.68-47.104-3.072-9.728 2.56-20.48 12.288-23.552 10.24-3.072 20.48 2.56 23.552 12.288z m-364.544 100.864c8.192 35.328 28.16 67.072 55.808 90.624 8.192 6.656 8.704 18.944 2.048 26.624-6.656 8.192-18.944 8.704-26.624 2.048-33.792-28.672-57.856-67.584-68.096-110.592-2.56-10.24 4.096-20.48 13.824-22.528 10.752-3.072 20.992 3.584 23.04 13.824zM335.872 121.856c5.632-5.632 14.336-5.632 19.968 0l139.264 152.064c2.56 2.56 4.096 6.656 4.096 10.752 0.512 4.096-1.024 7.68-4.096 10.752L356.352 446.464c-2.56 3.072-6.144 5.12-10.752 5.12-3.584 0-7.168-1.536-10.24-4.096-3.072-3.072-4.608-7.168-4.096-11.776v-81.92c-92.16 0-175.616 66.048-192 153.088-11.264-26.112-17.408-54.272-17.408-82.944 0.512-115.2 94.208-208.896 209.92-208.896V133.12c-0.512-4.096 1.024-8.192 4.096-11.264z m550.912 331.264c5.632 8.704 3.584 20.48-5.12 26.112-32.768 22.016-71.168 34.304-111.616 35.328h-17.92c-10.24-0.512-18.432-9.728-17.92-19.968 0.512-10.24 9.728-18.432 19.968-17.92h14.848c32.768-0.512 64.512-10.752 91.136-28.672 8.704-5.632 20.48-3.584 26.624 5.12zM236.032 571.392c104.448 0 188.928 84.48 188.928 188.928s-84.48 188.928-188.928 188.928-189.44-83.968-189.44-188.416 84.992-189.44 189.44-189.44z" fill="#A7D28C" p-id="1857"></path></svg>